<svg xmlns="http://www.w3.org/2000/svg" viewBox="0 0 512 512" role="img" aria-label="CanopyOps">
  <rect width="512" height="512" rx="96" fill="#0e1512"/>
  <!-- canopy -->
  <path d="M256 96c-58 0-104 40-112 92-38 8-66 40-66 80 0 46 38 84 86 84h44v52a12 12 0 0 0 24 0v-52h44c48 0 86-38 86-84 0-40-28-72-66-80-8-52-54-92-112-92z" fill="#37b57e"/>
  <path d="M256 150c-40 0-72 28-78 64-26 6-46 28-46 54 0 32 26 58 58 58h132c32 0 58-26 58-58 0-26-20-48-46-54-6-36-38-64-78-64z" fill="#1f6f4b"/>
  <!-- trunk -->
  <rect x="246" y="360" width="20" height="60" rx="8" fill="#8a6a4a"/>
</svg>
